# xmcd CD database file
#
# Track frame offsets:
#	150
#	12217
#	24022
#	38822
#	52595
#	67922
#	81667
#	94370
#	108497
#	121645
#	135805
#	149985
#	163865
#	177642
#	192242
#	206562
#	219517
#	234165
#	247935
#	262745
#	277932
#	292462
#
# Disc length: 4089 seconds
#
# Revision: 0
# Processed by: cddbd v1.5PL3 Copyright (c) Steve Scherf et al.
# Submitted via: CDex 1.51
#
DISCID=350ff716
DTITLE=コールマン ホーキンス - ボディ・アンド・ソウル
DYEAR=1900
DGENRE=Jazz
TTITLE0=コールマン ホーキンス／トミー リンゼイ／ジョー ガイ／アール ハーディ／ウィリアム オスカー スミス／アーサー ハーバート／ジーン ロジャース／ジャッキー フィールズ／ユーステイス ムーア/ミート・ドクター・フー
TTITLE1=コールマン ホーキンス／トミー リンゼイ／ジョー ガイ／アール ハーディ／ウィリアム オスカー スミス／アーサー ハーバート／ジーン ロジャース／ジャッキー フィールズ／ユーステイス ムーア/ファイン・ディナー
TTITLE2=コールマン ホーキンス／トミー リンゼイ／ジョー ガイ／アール ハーディ／ジーン ロジャース／テルマ カーペンター／ウィリアム オスカー スミス／アーサー ハーバート／ジャッキー フィールズ／ユーステイス ムーア/シーズ・ファニー・ザット・ウェイ
TTITLE3=コールマン ホーキンス／トミー リンゼイ／ジョー ガイ／アール ハーディ／ジーン ロジャース／ウィリアム オスカー スミス／アーサー ハーバート／ジャッキー フィールズ／ユーステイス ムーア/ボディ・アンド・ソウル
TTITLE4=コールマン ホーキンス／ベニー カーター／ジョニー ウィリアムス／ジーン ロジャース／ウォルター ジョンソン／Ｊ．Ｃ． ヒギンボサム／ダニー ポロ／ローレンス ルーシー/夜ともなれば
TTITLE5=コールマン ホーキンス／ベニー カーター／ジーン ロジャース／ジョニー ウィリアムス／ウォルター ジョンソン／Ｊ．Ｃ． ヒギンボサム／ダニー ポロ／ローレンス ルーシー/アラビアの酋長
TTITLE6=コールマン ホーキンス／ベニー カーター／ジーン ロジャース／ジョニー ウィリアムス／ウォルター ジョンソン／Ｊ．Ｃ． ヒギンボサム／ダニー ポロ／ローレンス ルーシー/私の青空
TTITLE7=コールマン ホーキンス／ベニー カーター／ジーン ロジャース／ジョニー ウィリアムス／ウォルター ジョンソン／Ｊ．Ｃ． ヒギンボサム／ダニー ポロ／ローレンス ルーシー/バウンシング・ウィズ・ビーン
TTITLE8=コールマン ホーキンス／チャーリー シェイヴァース／ピート ブラウン／アレン イーガー／ジミー ジョーンズ／メアリー オズボーン／アル マッキボン／シェリー マン/はっきり言ってよ
TTITLE9=コールマン ホーキンス／チャーリー シェイヴァース／ピート ブラウン／アレン イーガー／ジミー ジョーンズ／メアリー オズボーン／アル マッキボン／シェリー マン/スポットライト
TTITLE10=コールマン ホーキンス／ファッツ ナヴァロ／Ｊ．Ｊ． ジョンソン／ハンク ジョーンズ／ジャック レスバーグ／マックス ローチ／チャック ウェイン／バド ジョンソン／マリオン ディ ヴィータ/パリの四月
TTITLE11=コールマン ホーキンス／ファッツ ナヴァロ／Ｊ．Ｊ． ジョンソン／バド ジョンソン／ハンク ジョーンズ／チャック ウェイン／ジャック レスバーグ／マックス ローチ／マリオン ディ ヴィータ/ハウ・ストレンジ
TTITLE12=コールマン ホーキンス／ファッツ ナヴァロ／Ｊ．Ｊ． ジョンソン／バド ジョンソン／ハンク ジョーンズ／チャック ウェイン／ジャック レスバーグ／マックス ローチ／マリオン ディ ヴィータ/ハーフ・ステップ・ダウン・プリーズ
TTITLE13=コールマン ホーキンス／ファッツ ナヴァロ／Ｊ．Ｊ． ジョンソン／バド ジョンソン／ハンク ジョーンズ／チャック ウェイン／ジャック レスバーグ／マックス ローチ／マリオン ディ ヴィータ/エンジェル・フェイス
TTITLE14=コールマン ホーキンス／ファッツ ナヴァロ／Ｊ．Ｊ． ジョンソン／バド ジョンソン／ハンク ジョーンズ／チャック ウェイン／ジャック レスバーグ／マックス ローチ／マリオン ディ ヴィータ/ジャンピン・フォー・ジェーン
TTITLE15=コールマン ホーキンス／ハンク ジョーンズ／チャック ウェイン／ジャック レスバーグ／マックス ローチ/アイ・ラヴ・ユー
TTITLE16=コールマン ホーキンス／ナット ペック／ユベール フォル／ケニー クラーク／ピエール ミシュロ／ジャン ピエール メンジョン/シー・シャ
TTITLE17=コールマン ホーキンス／ナット ペック／ユベール フォル／ピエール ミシュロ／ケニー クラーク／ジャン ピエール メンジョン/ペイパー・ムーン
TTITLE18=コールマン ホーキンス／ナット ペック／ユベール フォル／ピエール ミシュロ／ケニー クラーク／ジャン ピエール メンジョン/ビーンズ・トーキング・アゲイン
TTITLE19=コールマン ホーキンス／ナット ペック／ユベール フォル／ピエール ミシュロ／ケニー クラーク／ジャン ピエール メンジョン/バ・ウ・バ
TTITLE20=コールマン ホーキンス／ナット ペック／ユベール フォル／ピエール ミシュロ／ケニー クラーク／ジャン ピエール メンジョン/アイ・サレンダー・ディア
TTITLE21=コールマン ホーキンス／ナット ペック／ユベール フォル／ピエール ミシュロ／ケニー クラーク／ジャン ピエール メンジョン/ソフィスティケイテッド・レディ
EXTD=
EXTT0=
EXTT1=
EXTT2=
EXTT3=
EXTT4=
EXTT5=
EXTT6=
EXTT7=
EXTT8=
EXTT9=
EXTT10=
EXTT11=
EXTT12=
EXTT13=
EXTT14=
EXTT15=
EXTT16=
EXTT17=
EXTT18=
EXTT19=
EXTT20=
EXTT21=
PLAYORDER=
